<svg xmlns="http://www.w3.org/2000/svg" width="1280" height="640" viewBox="0 0 1280 640" role="img" aria-labelledby="title desc">
  <title id="title">GeoPrizm social preview</title>
  <desc id="desc">Bilateral relationship trends from global news signals.</desc>
  <defs>
    <linearGradient id="bg" x1="0" x2="1" y1="0" y2="1">
      <stop offset="0" stop-color="#253044"/>
      <stop offset="0.56" stop-color="#34485c"/>
      <stop offset="1" stop-color="#566d7f"/>
    </linearGradient>
    <linearGradient id="chartFill" x1="0" x2="0" y1="0" y2="1">
      <stop offset="0" stop-color="#d97058" stop-opacity="0.28"/>
      <stop offset="0.52" stop-color="#ffffff" stop-opacity="0.08"/>
      <stop offset="1" stop-color="#6298bb" stop-opacity="0.24"/>
    </linearGradient>
    <filter id="shadow" x="-20%" y="-20%" width="140%" height="140%">
      <feDropShadow dx="0" dy="18" stdDeviation="18" flood-color="#101820" flood-opacity="0.25"/>
    </filter>
  </defs>

  <rect width="1280" height="640" fill="url(#bg)"/>
  <path d="M0 0h1280v640H0z" fill="#ffffff" opacity="0.02"/>
  <path d="M732 0c108 86 174 178 199 276 28 110 89 179 183 207 55 17 116 21 186 12v145H698V0z" fill="#6298bb" opacity="0.12"/>
  <path d="M0 450c110-36 206-32 288 13 104 56 213 66 327 29 77-25 146-65 207-120v268H0z" fill="#d97058" opacity="0.10"/>

  <g transform="translate(72 74)">
    <g transform="translate(0 0)">
      <rect width="82" height="82" rx="16" fill="#ffffff" opacity="0.10"/>
      <circle cx="36" cy="41" r="23" fill="none" stroke="#d97058" stroke-width="8"/>
      <circle cx="54" cy="41" r="23" fill="none" stroke="#6298bb" stroke-width="8"/>
      <circle cx="76" cy="76" r="6" fill="#16a34a"/>
    </g>

    <text x="112" y="35" fill="#ffffff" font-family="Avenir Next, Helvetica Neue, Arial, sans-serif" font-size="46" font-weight="800">GeoPrizm</text>
    <text x="112" y="78" fill="#dbe5ef" font-family="Avenir Next, Helvetica Neue, Arial, sans-serif" font-size="23" font-weight="700">Global news signals, explained</text>

    <text x="0" y="184" fill="#ffffff" font-family="Avenir Next, Helvetica Neue, Arial, sans-serif" font-size="60" font-weight="800">Track bilateral</text>
    <text x="0" y="252" fill="#ffffff" font-family="Avenir Next, Helvetica Neue, Arial, sans-serif" font-size="60" font-weight="800">relationships</text>
    <text x="0" y="310" fill="#d4deea" font-family="Avenir Next, Helvetica Neue, Arial, sans-serif" font-size="25" font-weight="700">GDELT events, 0-100 index, AI explanations.</text>

    <g transform="translate(0 356)">
      <rect width="190" height="46" rx="23" fill="#ffffff" opacity="0.11"/>
      <circle cx="27" cy="23" r="6" fill="#6298bb"/>
      <text x="48" y="30" fill="#eef5fb" font-family="Avenir Next, Helvetica Neue, Arial, sans-serif" font-size="18" font-weight="700">GDELT / CAMEO</text>

      <rect x="212" width="206" height="46" rx="23" fill="#ffffff" opacity="0.11"/>
      <circle cx="239" cy="23" r="6" fill="#d97058"/>
      <text x="260" y="30" fill="#eef5fb" font-family="Avenir Next, Helvetica Neue, Arial, sans-serif" font-size="18" font-weight="700">AI trend briefs</text>

      <rect x="440" width="170" height="46" rx="23" fill="#ffffff"/>
      <text x="466" y="30" fill="#1f2b33" font-family="Avenir Next, Helvetica Neue, Arial, sans-serif" font-size="18" font-weight="800">geoprizm.com</text>
    </g>
  </g>

  <g transform="translate(760 130)" filter="url(#shadow)">
    <rect width="392" height="318" rx="18" fill="#fbfcfd"/>
    <text x="30" y="46" fill="#1f2b33" font-family="Avenir Next, Helvetica Neue, Arial, sans-serif" font-size="24" font-weight="800">Relationship index</text>
    <text x="30" y="76" fill="#667085" font-family="Avenir Next, Helvetica Neue, Arial, sans-serif" font-size="16" font-weight="700">China / United States · 90 days</text>

    <line x1="32" y1="196" x2="360" y2="196" stroke="#c9d2dc" stroke-width="2" stroke-dasharray="8 8"/>
    <text x="312" y="187" fill="#6b7280" font-family="Avenir Next, Helvetica Neue, Arial, sans-serif" font-size="13" font-weight="800">50 neutral</text>
    <path d="M32 232 C78 222 88 158 126 172 C160 184 168 136 208 126 C244 116 258 174 292 158 C324 142 336 104 360 98 L360 262 L32 262Z" fill="url(#chartFill)"/>
    <path d="M32 232 C78 222 88 158 126 172 C160 184 168 136 208 126 C244 116 258 174 292 158 C324 142 336 104 360 98" fill="none" stroke="#374151" stroke-width="5" stroke-linecap="round"/>
    <circle cx="360" cy="98" r="9" fill="#c4563b" stroke="#ffffff" stroke-width="4"/>

    <g transform="translate(30 264)">
      <rect width="102" height="38" rx="19" fill="#f3f5f7"/>
      <text x="23" y="25" fill="#1f2b33" font-family="Avenir Next, Helvetica Neue, Arial, sans-serif" font-size="15" font-weight="800">90 days</text>
      <rect x="120" width="102" height="38" rx="19" fill="#f3f5f7"/>
      <text x="143" y="25" fill="#667085" font-family="Avenir Next, Helvetica Neue, Arial, sans-serif" font-size="15" font-weight="800">30 days</text>
    </g>
  </g>

  <text x="72" y="584" fill="#d4deea" font-family="Avenir Next, Helvetica Neue, Arial, sans-serif" font-size="20" font-weight="700">github.com/Haullk/relationship-temperature</text>
</svg>
