<svg xmlns="http://www.w3.org/2000/svg" width="1280" height="760" viewBox="0 0 1280 760">
<rect width="1280" height="760" fill="#fbfaf7"/>
<style>
text{font-family:Inter,Arial,'Helvetica Neue',sans-serif;fill:#2b2b2b}
.title{font-family:Georgia,'Times New Roman',serif;font-size:34px;font-weight:700}
.subtitle{font-size:16px;fill:#5f646b}
.axis{stroke:#2b2b2b;stroke-width:1.2}
.grid{stroke:#dedbd2;stroke-width:1}
.tick{font-size:13px;fill:#555}
.label{font-size:18px;font-weight:600}
.note{font-size:13px;fill:#666}
</style>
<text class="title" x="640.0" y="48" text-anchor="middle">Bilateral Relationship Signals (2026)</text>
<text class="subtitle" x="640.0" y="75" text-anchor="middle">GDELT Events in local MapNews database, 2026-02-23 to 2026-05-30, 7-day rolling average of daily GoldsteinScale</text>
<line class="grid" x1="96" y1="644.0" x2="1010" y2="644.0"/>
<text class="tick" x="82" y="648.0" text-anchor="end">-1.0</text>
<line class="grid" x1="96" y1="582.7" x2="1010" y2="582.7"/>
<text class="tick" x="82" y="586.7" text-anchor="end">-0.5</text>
<line class="grid" x1="96" y1="521.3" x2="1010" y2="521.3"/>
<text class="tick" x="82" y="525.3" text-anchor="end">0.0</text>
<line class="grid" x1="96" y1="460.0" x2="1010" y2="460.0"/>
<text class="tick" x="82" y="464.0" text-anchor="end">0.5</text>
<line class="grid" x1="96" y1="398.7" x2="1010" y2="398.7"/>
<text class="tick" x="82" y="402.7" text-anchor="end">1.0</text>
<line class="grid" x1="96" y1="337.3" x2="1010" y2="337.3"/>
<text class="tick" x="82" y="341.3" text-anchor="end">1.5</text>
<line class="grid" x1="96" y1="276.0" x2="1010" y2="276.0"/>
<text class="tick" x="82" y="280.0" text-anchor="end">2.0</text>
<line class="grid" x1="96" y1="214.7" x2="1010" y2="214.7"/>
<text class="tick" x="82" y="218.7" text-anchor="end">2.5</text>
<line class="grid" x1="96" y1="153.3" x2="1010" y2="153.3"/>
<text class="tick" x="82" y="157.3" text-anchor="end">3.0</text>
<line class="grid" x1="96" y1="92.0" x2="1010" y2="92.0"/>
<text class="tick" x="82" y="96.0" text-anchor="end">3.5</text>
<line class="grid" x1="96.0" y1="92" x2="96.0" y2="644"/>
<text class="tick" x="96.0" y="672" text-anchor="middle">Feb 23</text>
<line class="grid" x1="153.1" y1="92" x2="153.1" y2="644"/>
<text class="tick" x="153.1" y="672" text-anchor="middle">Mar 01</text>
<line class="grid" x1="448.3" y1="92" x2="448.3" y2="644"/>
<text class="tick" x="448.3" y="672" text-anchor="middle">Apr 01</text>
<line class="grid" x1="733.9" y1="92" x2="733.9" y2="644"/>
<text class="tick" x="733.9" y="672" text-anchor="middle">May 01</text>
<line class="axis" x1="96" y1="644" x2="1010" y2="644"/>
<line class="axis" x1="96" y1="92" x2="96" y2="644"/>
<text class="label" transform="translate(32,368.0) rotate(-90)" text-anchor="middle">Relationship Score</text>
<text class="label" x="553.0" y="724" text-anchor="middle">Date</text>
<polyline points="96.0,323.8 105.5,375.6 115.0,386.2 124.6,377.7 134.1,368.3 143.6,355.6 153.1,362.3 162.6,381.7 172.2,369.9 181.7,369.2 191.2,372.9 200.7,377.3 210.2,379.7 219.8,369.7 229.3,359.0 238.8,350.4 248.3,350.6 257.9,348.1 267.4,348.7 276.9,365.1 286.4,369.2 295.9,354.0 305.5,366.4 315.0,352.8 324.5,364.5 334.0,364.0 343.5,356.0 353.1,351.3 362.6,375.4 372.1,381.2 381.6,390.8 391.1,381.1 400.7,386.1 410.2,373.5 419.7,385.9 429.2,380.4 438.8,381.9 448.3,380.7 457.8,400.1 467.3,406.8 476.8,423.4 486.4,423.4 495.9,440.6 505.4,450.8 514.9,449.5 524.4,431.0 534.0,426.7 543.5,421.9 553.0,438.4 562.5,412.5 572.0,411.6 581.6,427.1 591.1,435.3 600.6,439.3 610.1,440.4 619.6,432.5 629.2,443.9 638.7,439.7 648.2,435.5 657.7,431.8 667.2,437.4 676.8,476.5 686.3,489.4 695.8,490.2 705.3,494.2 714.9,512.4 724.4,503.7 733.9,505.2 743.4,472.9 752.9,465.2 762.5,468.8 772.0,450.7 781.5,419.1 791.0,429.1 800.5,406.7 810.1,395.8 819.6,361.7 829.1,338.6 838.6,332.3 848.1,325.7 857.7,309.3 867.2,310.0 876.7,302.3 886.2,309.2 895.8,309.4 905.3,301.5 914.8,308.6 924.3,316.1 933.8,317.9 943.4,329.4 952.9,341.9 962.4,348.9 971.9,357.2 981.4,362.8 991.0,373.9 1000.5,382.2 1010.0,404.9" fill="none" stroke="#24327f" stroke-width="3.2" stroke-linecap="round" stroke-linejoin="round"/>
<circle cx="1010.0" cy="404.9" r="4" fill="#24327f"/>
<polyline points="96.0,261.8 105.5,148.0 115.0,226.8 124.6,273.9 134.1,296.7 143.6,296.0 153.1,297.2 162.6,285.9 172.2,335.8 181.7,298.4 191.2,293.8 200.7,295.6 210.2,336.9 219.8,337.0 229.3,355.3 238.8,325.1 248.3,353.2 257.9,354.0 267.4,374.4 276.9,321.8 286.4,303.5 295.9,294.6 305.5,334.7 315.0,357.4 324.5,337.3 334.0,299.7 343.5,358.5 353.1,375.7 362.6,364.0 372.1,315.4 381.6,301.6 391.1,299.9 400.7,329.1 410.2,298.6 419.7,279.8 429.2,283.3 438.8,322.2 448.3,351.6 457.8,393.5 467.3,416.4 476.8,401.3 486.4,426.8 495.9,453.4 505.4,501.7 514.9,496.2 524.4,471.8 534.0,466.9 543.5,512.5 553.0,490.6 562.5,465.5 572.0,379.8 581.6,336.5 591.1,338.8 600.6,334.7 610.1,326.4 619.6,347.4 629.2,368.6 638.7,393.0 648.2,398.5 657.7,366.4 667.2,291.8 676.8,281.0 686.3,258.9 695.8,267.5 705.3,265.0 714.9,289.8 724.4,328.5 733.9,366.6 743.4,365.8 752.9,366.8 762.5,348.2 772.0,360.8 781.5,349.1 791.0,357.4 800.5,374.7 810.1,369.4 819.6,387.7 829.1,401.9 838.6,385.3 848.1,362.5 857.7,331.0 867.2,296.4 876.7,268.8 886.2,279.0 895.8,265.6 905.3,257.3 914.8,256.2 924.3,244.4 933.8,247.2 943.4,242.3 952.9,225.8 962.4,217.5 971.9,242.5 981.4,244.8 991.0,248.0 1000.5,251.1 1010.0,253.5" fill="none" stroke="#b24d54" stroke-width="3.2" stroke-linecap="round" stroke-linejoin="round"/>
<circle cx="1010.0" cy="253.5" r="4" fill="#b24d54"/>
<polyline points="96.0,321.9 105.5,328.8 115.0,358.9 124.6,367.2 134.1,368.8 143.6,360.8 153.1,389.4 162.6,419.7 172.2,452.8 181.7,455.8 191.2,450.4 200.7,457.4 210.2,475.6 219.8,465.1 229.3,470.6 238.8,446.5 248.3,436.4 257.9,452.7 267.4,440.2 276.9,421.4 286.4,397.1 295.9,360.1 305.5,383.0 315.0,402.7 324.5,397.1 334.0,400.3 343.5,397.9 353.1,390.1 362.6,402.4 372.1,382.5 381.6,373.0 391.1,365.5 400.7,374.7 410.2,401.7 419.7,441.4 429.2,430.8 438.8,428.2 448.3,407.1 457.8,396.2 467.3,395.4 476.8,377.9 486.4,341.9 495.9,348.5 505.4,370.8 514.9,392.6 524.4,405.3 534.0,403.1 543.5,394.1 553.0,402.3 562.5,416.7 572.0,415.4 581.6,437.5 591.1,446.3 600.6,460.0 610.1,483.5 619.6,506.6 629.2,515.1 638.7,506.6 648.2,487.1 657.7,483.1 667.2,480.9 676.8,465.2 686.3,456.6 695.8,434.2 705.3,441.8 714.9,437.1 724.4,449.4 733.9,445.3 743.4,484.3 752.9,497.4 762.5,503.4 772.0,500.2 781.5,505.0 791.0,471.6 800.5,451.0 810.1,402.7 819.6,392.3 829.1,375.2 838.6,342.0 848.1,335.8 857.7,364.9 867.2,381.2 876.7,416.5 886.2,441.9 895.8,450.9 905.3,478.6 914.8,480.9 924.3,467.5 933.8,459.0 943.4,447.7 952.9,421.1 962.4,399.0 971.9,382.0 981.4,371.7 991.0,365.0 1000.5,371.5 1010.0,408.5" fill="none" stroke="#527a4e" stroke-width="3.2" stroke-linecap="round" stroke-linejoin="round"/>
<circle cx="1010.0" cy="408.5" r="4" fill="#527a4e"/>
<polyline points="96.0,336.6 105.5,327.0 115.0,319.1 124.6,323.5 134.1,320.7 143.6,315.2 153.1,317.3 162.6,322.3 172.2,330.0 181.7,340.3 191.2,346.6 200.7,359.3 210.2,371.3 219.8,369.4 229.3,363.2 238.8,352.3 248.3,347.1 257.9,345.0 267.4,338.3 276.9,340.8 286.4,350.7 295.9,346.4 305.5,341.5 315.0,336.6 324.5,325.8 334.0,318.7 343.5,327.3 353.1,334.4 362.6,340.7 372.1,352.8 381.6,359.0 391.1,363.6 400.7,372.5 410.2,343.5 419.7,325.4 429.2,318.6 438.8,317.8 448.3,315.9 457.8,320.2 467.3,314.1 476.8,324.8 486.4,339.2 495.9,348.1 505.4,350.8 514.9,345.3 524.4,333.9 534.0,332.7 543.5,323.7 553.0,300.8 562.5,290.5 572.0,280.1 581.6,282.9 591.1,295.5 600.6,294.2 610.1,305.9 619.6,323.1 629.2,336.2 638.7,349.5 648.2,351.9 657.7,342.5 667.2,346.3 676.8,354.5 686.3,351.8 695.8,337.4 705.3,332.0 714.9,337.4 724.4,349.7 733.9,347.7 743.4,346.1 752.9,344.3 762.5,355.5 772.0,350.4 781.5,343.4 791.0,337.2 800.5,338.9 810.1,332.4 819.6,321.9 829.1,311.6 838.6,311.4 848.1,304.0 857.7,299.7 867.2,295.6 876.7,290.9 886.2,302.1 895.8,304.8 905.3,300.9 914.8,300.8 924.3,297.8 933.8,296.5 943.4,297.5 952.9,294.4 962.4,290.9 971.9,291.0 981.4,290.7 991.0,296.2 1000.5,301.8 1010.0,309.1" fill="none" stroke="#5a365f" stroke-width="3.2" stroke-linecap="round" stroke-linejoin="round"/>
<circle cx="1010.0" cy="309.1" r="4" fill="#5a365f"/>
<polyline points="96.0,390.6 105.5,393.3 115.0,402.4 124.6,405.7 134.1,402.9 143.6,434.6 153.1,467.4 162.6,498.6 172.2,527.6 181.7,549.0 191.2,567.0 200.7,584.0 210.2,577.1 219.8,563.1 229.3,552.7 238.8,540.1 248.3,530.1 257.9,523.3 267.4,527.4 276.9,535.0 286.4,531.8 295.9,521.2 305.5,517.6 315.0,513.7 324.5,512.6 334.0,502.4 343.5,485.8 353.1,485.0 362.6,486.7 372.1,476.8 381.6,470.6 391.1,467.0 400.7,468.5 410.2,467.0 419.7,470.5 429.2,471.4 438.8,479.4 448.3,477.4 457.8,476.8 467.3,478.6 476.8,490.0 486.4,486.7 495.9,491.2 505.4,492.0 514.9,482.6 524.4,474.3 534.0,459.5 543.5,430.2 553.0,409.8 562.5,392.1 572.0,380.7 581.6,387.9 591.1,385.8 600.6,383.1 610.1,387.7 619.6,386.7 629.2,388.9 638.7,386.8 648.2,390.0 657.7,392.5 667.2,393.9 676.8,391.9 686.3,398.3 695.8,397.1 705.3,404.2 714.9,403.7 724.4,404.5 733.9,408.1 743.4,416.7 752.9,409.1 762.5,413.7 772.0,417.9 781.5,417.9 791.0,416.4 800.5,419.7 810.1,418.8 819.6,424.8 829.1,417.4 838.6,411.0 848.1,406.4 857.7,405.1 867.2,399.8 876.7,398.4 886.2,399.6 895.8,408.3 905.3,408.8 914.8,420.3 924.3,424.7 933.8,424.2 943.4,424.3 952.9,419.8 962.4,410.5 971.9,409.1 981.4,402.9 991.0,403.9 1000.5,406.7 1010.0,410.3" fill="none" stroke="#d8bf5b" stroke-width="3.2" stroke-linecap="round" stroke-linejoin="round"/>
<circle cx="1010.0" cy="410.3" r="4" fill="#d8bf5b"/>
<text x="1022.0" y="258.5" font-size="16" fill="#b24d54">China-Russia (10,550)</text>
<text x="1022.0" y="314.1" font-size="16" fill="#5a365f">Overall with China (156,408)</text>
<text x="1022.0" y="409.9" font-size="16" fill="#24327f">China-USA (33,302)</text>
<line x1="1016.0" y1="408.5" x2="1018.0" y2="421.9" stroke="#527a4e" stroke-width="1.2" opacity="0.55"/>
<text x="1022.0" y="431.9" font-size="16" fill="#527a4e">USA-Russia (17,286)</text>
<line x1="1016.0" y1="410.3" x2="1018.0" y2="443.9" stroke="#d8bf5b" stroke-width="1.2" opacity="0.55"/>
<text x="1022.0" y="453.9" font-size="16" fill="#d8bf5b">Overall with USA (656,923)</text>
<rect x="108" y="552" width="430" height="74" fill="#fbfaf7" stroke="#d6d1c7" stroke-width="1"/>
<text class="note" x="122" y="575">Score = daily average GoldsteinScale for cross-country dyadic GDELT events.</text>
<text class="note" x="122" y="597">Positive values lean cooperative; negative values lean conflictual.</text>
<text class="note" x="122" y="619">Clean table keeps geocoded events; this is a media-event signal, not a diplomatic index.</text>
</svg>